<svg xmlns="http://www.w3.org/2000/svg" width="260" height="91.653" viewBox="0 0 260 91.653">
  <g id="Group_103" data-name="Group 103" transform="translate(-226.525 -20.692)">
    <g id="Group_28" data-name="Group 28" transform="translate(312.991 20.692)">
      <g id="Group_18" data-name="Group 18" transform="translate(18.599)">
        <g id="Group_16" data-name="Group 16">
          <path id="Path_1" data-name="Path 1" d="M291.1,27.824,287.546,40.63,284,27.824,287.546,23Z" transform="translate(-283.997 -18.786)" fill="#fff"/>
          <path id="Path_2" data-name="Path 2" d="M290.423,20.692l-3.089,4.21-3.086-4.21Z" transform="translate(-283.789 -20.692)" fill="#fff"/>
        </g>
        <g id="Group_17" data-name="Group 17" transform="translate(0 22.448)">
          <path id="Path_3" data-name="Path 3" d="M284,45.765l3.545-12.793L291.1,45.765,287.543,50.6Z" transform="translate(-283.997 -32.972)" fill="#fff"/>
          <path id="Path_4" data-name="Path 4" d="M284.252,46.828l3.083-4.213,3.094,4.213Z" transform="translate(-283.786 -24.987)" fill="#fff"/>
        </g>
      </g>
      <g id="Group_21" data-name="Group 21" transform="translate(0 18.595)">
        <g id="Group_19" data-name="Group 19" transform="translate(22.448)">
          <path id="Path_5" data-name="Path 5" d="M298.9,37.962,286.1,34.41l12.8-3.545,4.833,3.545Z" transform="translate(-286.103 -30.864)" fill="#fff"/>
          <path id="Path_6" data-name="Path 6" d="M299.96,37.3l-4.211-3.094,4.211-3.094Z" transform="translate(-278.114 -30.66)" fill="#fff"/>
        </g>
        <g id="Group_20" data-name="Group 20">
          <path id="Path_7" data-name="Path 7" d="M280.959,30.864l12.8,3.545-12.8,3.553-4.831-3.553Z" transform="translate(-271.915 -30.864)" fill="#fff"/>
          <path id="Path_8" data-name="Path 8" d="M273.823,31.115l4.213,3.088L273.823,37.3Z" transform="translate(-273.823 -30.656)" fill="#fff"/>
        </g>
      </g>
      <g id="Group_24" data-name="Group 24" transform="translate(4.302 4.301)">
        <g id="Group_22" data-name="Group 22" transform="translate(18.065)">
          <path id="Path_9" data-name="Path 9" d="M297.613,31.793l-11.554,6.545L292.6,26.777l5.918-.909Z" transform="translate(-286.059 -20.707)" fill="#fff"/>
          <path id="Path_10" data-name="Path 10" d="M298.036,27.415l-5.163.789.794-5.159Z" transform="translate(-280.416 -23.045)" fill="#fff"/>
        </g>
        <g id="Group_23" data-name="Group 23" transform="translate(0 18.058)">
          <path id="Path_11" data-name="Path 11" d="M279.906,39.462l11.561-6.539-6.543,11.559L279,45.391Z" transform="translate(-273.838 -32.923)" fill="#fff"/>
          <path id="Path_12" data-name="Path 12" d="M276.177,40.532l5.165-.789-.795,5.163Z" transform="translate(-276.177 -27.275)" fill="#fff"/>
        </g>
      </g>
      <g id="Group_27" data-name="Group 27" transform="translate(4.302 4.301)">
        <g id="Group_25" data-name="Group 25" transform="translate(18.061 18.061)">
          <path id="Path_13" data-name="Path 13" d="M292.6,44.481l-6.543-11.556,11.554,6.536.907,5.929Z" transform="translate(-286.057 -32.925)" fill="#fff"/>
          <path id="Path_14" data-name="Path 14" d="M293.664,44.9l-.787-5.159,5.159.787Z" transform="translate(-280.409 -27.278)" fill="#fff"/>
        </g>
        <g id="Group_26" data-name="Group 26">
          <path id="Path_15" data-name="Path 15" d="M284.924,26.778l6.547,11.558-11.565-6.541L279,25.867Z" transform="translate(-273.838 -20.708)" fill="#fff"/>
          <path id="Path_16" data-name="Path 16" d="M280.547,23.045l.793,5.161-5.163-.791Z" transform="translate(-276.177 -23.045)" fill="#fff"/>
        </g>
      </g>
    </g>
    <g id="Group_29" data-name="Group 29" transform="translate(226.525 68.994)">
      <path id="Path_17" data-name="Path 17" d="M254.627,68.583a6.174,6.174,0,0,1-1.843-.254c-1.223-.4-1.421-1.989-1.53-3.011l-1.9-17.435c-.06-.547-.143-.77-.342-.77s-.314.2-.428.455l-8.336,17.808-8.674-17.835c-.139-.314-.256-.428-.426-.428s-.282.2-.314.512l-2.038,18.489c-.11,1.08-.2,2.183-1.137,2.356a3.58,3.58,0,0,1-.848.086c-.141,0-.283.057-.283.139,0,.194.2.258.483.258.764,0,2.128-.09,2.378-.09.225,0,1.59.09,2.643.09.344,0,.51-.064.51-.258,0-.082-.121-.139-.23-.139a5.5,5.5,0,0,1-1.079-.144.907.907,0,0,1-.739-.879c0-.486,0-1,.031-1.448l1.139-13.16h.108c.313.77,3.493,7.57,3.744,8.082.141.283,2.579,5.19,3.318,6.581.539,1.026.68,1.3.879,1.3.254,0,.336-.252.932-1.5L247.6,52.644h.086l1.358,14.718c.053.512.024.993-.115,1.018s-.2.091-.2.2c0,.141.144.225.793.282,1.049.09,4.113.117,4.74.117.335,0,.594-.091.594-.258C254.853,68.614,254.773,68.583,254.627,68.583Z" transform="translate(-226.525 -47.114)" fill="#fff"/>
      <path id="Path_18" data-name="Path 18" d="M254.686,64.146c-.143,0-.2.09-.258.373a1.809,1.809,0,0,1-1.135,1.671,8.358,8.358,0,0,1-2.492.252c-2.466,0-2.919-.309-2.976-1.923-.027-.483,0-3.292,0-4.113V58.391c0-.082.024-.174.166-.174.426,0,3.091.033,3.773.119.963.11,1.19.4,1.274.731a2.106,2.106,0,0,1,.117.8c0,.144.051.229.168.229.172,0,.228-.256.228-.453,0-.172.049-1.08.113-1.559a12.492,12.492,0,0,1,.2-1.335c0-.141-.058-.2-.144-.2s-.2.143-.369.314c-.247.256-.622.283-1.216.344-.565.053-3.857.053-4.17.053-.139,0-.139-.086-.139-.256v-6.55c0-.17.024-.256.139-.256.287,0,3.177.029,3.605.086,1.36.17,1.609.342,1.781.737a2.6,2.6,0,0,1,.146.856c0,.194.057.305.2.305.113,0,.2-.139.227-.254.059-.282.111-1.358.144-1.587a11.369,11.369,0,0,1,.2-1.133c0-.117-.026-.229-.11-.229-.119,0-.23.086-.344.112a10.831,10.831,0,0,1-1.135.143c-.565.029-5.784,0-5.952,0-.144,0-1.76-.055-2.89-.055-.291,0-.4.055-.4.194a.231.231,0,0,0,.192.2,7.447,7.447,0,0,1,.859.062c.819.11.962.51,1.022,1.331.057.762.057,1.446.057,5.192v4.252a49.005,49.005,0,0,1-.142,5.217c-.117.709-.172,1.19-.655,1.272a6.1,6.1,0,0,1-.766.121.19.19,0,0,0-.2.2c0,.133.143.2.4.2.395,0,.96-.035,1.446-.064.537-.026,1.02-.026,1.077-.026.369,0,1.016,0,2.066.055,1.024.035,2.472.088,4.34.088.967,0,1.221,0,1.391-.627a19.791,19.791,0,0,0,.342-2.32C254.856,64.345,254.827,64.146,254.686,64.146Z" transform="translate(-212.527 -45.572)" fill="#fff"/>
      <path id="Path_19" data-name="Path 19" d="M271.639,66.925a9.085,9.085,0,0,1-1.11-.121c-.766-.108-.826-.563-.909-1.272-.11-.993-.143-2.9-.143-5.217V56.063c0-3.746,0-4.429.059-5.192.055-.848.2-1.192.85-1.331a2.674,2.674,0,0,1,.623-.062.238.238,0,0,0,.227-.2c0-.139-.139-.194-.424-.194-.739,0-2.329.055-2.47.055-.11,0-1.722-.055-2.835-.055-.283,0-.395.055-.395.194a.208.208,0,0,0,.2.2,7.311,7.311,0,0,1,.852.062c.826.11.938.51,1,1.331.029.762.059,1.5.059,5.247v.512c0,.141-.059.141-.143.141H256.667c-.088,0-.144,0-.144-.141v-.512c0-3.744,0-4.484.027-5.247.053-.848.2-1.192.881-1.331a2.522,2.522,0,0,1,.622-.062.237.237,0,0,0,.2-.2c0-.139-.113-.194-.4-.194-.76,0-2.351.055-2.461.055-.148,0-1.735-.055-2.866-.055-.287,0-.393.055-.393.194a.229.229,0,0,0,.194.2,7.311,7.311,0,0,1,.85.062c.823.11.962.51,1.024,1.331.053.762.053,1.446.053,5.192v4.252a50.238,50.238,0,0,1-.139,5.217c-.115.709-.174,1.165-.658,1.272a3.3,3.3,0,0,1-.762.121.192.192,0,0,0-.2.2c0,.133.141.2.4.2.762,0,2.349-.09,2.5-.09.11,0,1.7.09,3.088.09.285,0,.4-.09.4-.2a.189.189,0,0,0-.2-.2,9.667,9.667,0,0,1-1.135-.121c-.742-.108-.823-.563-.909-1.272-.113-.993-.113-2.841-.113-5.164V57.96c0-.11.057-.144.144-.144h10.406a.126.126,0,0,1,.143.144v2.408c0,2.324,0,4.142-.117,5.133-.086.709-.168,1.2-.68,1.3a3.2,3.2,0,0,1-.735.121.185.185,0,0,0-.2.2c0,.133.11.2.391.2.744,0,2.356-.09,2.466-.09.141,0,1.731.09,3.1.09.283,0,.426-.09.426-.2A.2.2,0,0,0,271.639,66.925Z" transform="translate(-205.321 -45.482)" fill="#fff"/>
      <path id="Path_20" data-name="Path 20" d="M279.89,51.989c.024.34.084.424.2.424s.227-.11.227-.309c0-.287.082-2.009.082-2.753,0-.143,0-.283-.113-.283s-.338.058-.706.113a12.194,12.194,0,0,1-1.79.113h-9.413c-.283,0-1.245-.026-1.952-.113a8.584,8.584,0,0,1-1.11-.283c-.093,0-.229.311-.256.453-.06.2-.537,2.356-.537,2.607a.191.191,0,0,0,.168.2c.119,0,.2-.031.258-.225a3.674,3.674,0,0,1,.4-.771c.369-.565.962-.735,2.521-.764l3.6-.057V60.47c0,2.322,0,4.225-.106,5.217-.086.709-.229,1.19-.739,1.307a3.576,3.576,0,0,1-.738.111.171.171,0,0,0-.2.174c0,.133.117.2.393.2.74,0,2.47-.09,2.581-.09.146,0,1.733.09,3.093.09.283,0,.4-.09.4-.2a.177.177,0,0,0-.2-.2,8.938,8.938,0,0,1-1.128-.121c-.771-.108-.877-.563-.967-1.272-.113-.993-.113-2.9-.113-5.217V50.346l3.121.057c2.378.057,2.921.6,3,1.331Z" transform="translate(-195.062 -45.637)" fill="#fff"/>
      <path id="Path_21" data-name="Path 21" d="M291.978,67.131a3.528,3.528,0,0,1-.989-.144c-.543-.166-1.219-.483-2.132-2.636-1.527-3.664-5.532-13.612-5.98-14.636-.254-.537-.345-.877-.6-.877-.165,0-.287.141-.589.941L275.816,64.86c-.481,1.218-.967,2.068-2.1,2.21a7.136,7.136,0,0,1-.737.06.219.219,0,0,0-.229.2c0,.133.175.2.483.2,1.02,0,2.269-.09,2.525-.09.285,0,1.643.09,2.241.09.225,0,.362-.064.362-.2s-.055-.2-.251-.2h-.225c-.42,0-.846-.177-.846-.656a4.954,4.954,0,0,1,.362-1.614L278.819,61a.266.266,0,0,1,.26-.2h5.755c.139,0,.17.026.227.137l2.243,5.534a.46.46,0,0,1-.228.656c-.121.057-.174.057-.174.166,0,.141.4.141.881.166,1.733.064,3.574.064,3.941.064.282,0,.567-.064.567-.2S292.126,67.131,291.978,67.131Zm-7.515-7.32h-5.046c-.088,0-.11-.058-.088-.168l2.329-6.612c.141-.366.28-.366.424,0l2.466,6.612C284.578,59.753,284.578,59.811,284.463,59.811Z" transform="translate(-188.244 -45.687)" fill="#fff"/>
    </g>
    <g id="Group_30" data-name="Group 30" transform="translate(252.19 67.127)">
      <path id="Path_22" data-name="Path 22" d="M301.364,64.146c-.141,0-.2.09-.254.373a1.83,1.83,0,0,1-1.133,1.671,8.413,8.413,0,0,1-2.5.252c-2.468,0-2.923-.309-2.978-1.923-.031-.483,0-3.292,0-4.113V58.391a.154.154,0,0,1,.172-.174c.422,0,3.091.033,3.773.119.958.11,1.185.4,1.272.731a2.168,2.168,0,0,1,.113.8c0,.144.055.229.168.229.17,0,.229-.256.229-.453,0-.172.055-1.08.112-1.559.059-.793.2-1.188.2-1.335s-.057-.2-.143-.2-.2.143-.367.314c-.26.256-.627.283-1.219.344-.57.053-3.854.053-4.166.053-.144,0-.144-.086-.144-.256v-6.55c0-.17.029-.256.144-.256.283,0,3.177.029,3.6.086,1.366.17,1.618.342,1.79.737a2.71,2.71,0,0,1,.139.856c0,.194.058.305.2.305.112,0,.2-.139.225-.254.06-.282.113-1.358.141-1.587a10.956,10.956,0,0,1,.2-1.133c0-.117-.035-.229-.115-.229-.115,0-.229.086-.342.112a10.9,10.9,0,0,1-1.135.143c-.567.029-5.784,0-5.958,0-.141,0-1.755-.055-2.89-.055-.28,0-.4.055-.4.194a.241.241,0,0,0,.2.2,7.379,7.379,0,0,1,.854.062c.826.11.963.51,1.022,1.331.059.762.059,1.446.059,5.192v4.252a47.146,47.146,0,0,1-.148,5.217c-.106.709-.168,1.19-.653,1.272a5.7,5.7,0,0,1-.762.121.187.187,0,0,0-.2.2c0,.133.141.2.4.2.4,0,.96-.035,1.446-.064.537-.026,1.018-.026,1.071-.026.373,0,1.027,0,2.077.055,1.016.035,2.468.088,4.333.088.965,0,1.219,0,1.391-.627a20,20,0,0,0,.336-2.32C301.53,64.345,301.506,64.146,301.364,64.146Z" transform="translate(-199.538 -43.706)" fill="#fff"/>
      <path id="Path_23" data-name="Path 23" d="M325.592,49.085c-.768,0-1.845.055-2.016.055-.229,0-1.274-.055-2.55-.055-.314,0-.426.055-.426.168a.239.239,0,0,0,.225.225c1.139,0,1.336.283,1.336.713a5.018,5.018,0,0,1-.283,1.5c-.881,3.089-3.121,10.064-3.744,12.051h-.115L313.14,50.277c-.314-.826-.506-1.137-.68-1.137-.137,0-.309.139-.676,1.108l-5.223,13.5H306.5c-.311-1-2.863-9.839-3.26-11.371a14.774,14.774,0,0,1-.486-2.239.489.489,0,0,1,.344-.51,2.062,2.062,0,0,1,.883-.146.245.245,0,0,0,.254-.225c0-.113-.115-.168-.455-.168-1.249,0-2.384.055-2.612.055-.254,0-1.638-.055-2.941-.055-.23,0-.4.055-.4.168a.22.22,0,0,0,.225.225,4.673,4.673,0,0,1,1.137.146c.651.225.907.537,1.3,1.808l4.428,14.3c.51,1.645.7,1.9.958,1.9.287,0,.457-.252.877-1.276.909-2.238,4.283-11.084,5.133-13.182l4.879,13.21c.344.943.567,1.249.821,1.249.292,0,.426-.278,1.082-2.064.987-2.7,3.459-10.353,4.565-13.415.483-1.335.881-2.3,1.62-2.554a4.051,4.051,0,0,1,.845-.117.223.223,0,0,0,.225-.25C325.928,49.14,325.822,49.085,325.592,49.085Z" transform="translate(-193.142 -43.615)" fill="#fff"/>
      <path id="Path_24" data-name="Path 24" d="M325.649,64.146c-.143,0-.2.09-.258.373a1.824,1.824,0,0,1-1.133,1.671,8.37,8.37,0,0,1-2.492.252c-2.47,0-2.923-.309-2.976-1.923-.027-.483,0-3.292,0-4.113V58.391a.151.151,0,0,1,.17-.174c.422,0,3.091.033,3.766.119.969.11,1.2.4,1.278.731a2.168,2.168,0,0,1,.113.8c0,.144.055.229.176.229.163,0,.223-.256.223-.453,0-.172.055-1.08.113-1.559a13.03,13.03,0,0,1,.2-1.335c0-.141-.06-.2-.143-.2s-.192.143-.373.314c-.249.256-.616.283-1.214.344-.565.053-3.855.053-4.172.053-.135,0-.135-.086-.135-.256v-6.55c0-.17.026-.256.135-.256.283,0,3.177.029,3.607.086,1.355.17,1.614.342,1.779.737a2.538,2.538,0,0,1,.144.856c0,.194.06.305.2.305.113,0,.2-.139.229-.254.057-.282.113-1.358.148-1.587a11.058,11.058,0,0,1,.194-1.133c0-.117-.029-.229-.113-.229-.115,0-.229.086-.344.112a10.612,10.612,0,0,1-1.13.143c-.567.029-5.784,0-5.954,0-.144,0-1.762-.055-2.9-.055-.281,0-.395.055-.395.194a.237.237,0,0,0,.2.2,7.439,7.439,0,0,1,.85.062c.815.11.965.51,1.015,1.331.064.762.064,1.446.064,5.192v4.252a48.943,48.943,0,0,1-.143,5.217c-.121.709-.174,1.19-.654,1.272a5.876,5.876,0,0,1-.768.121.191.191,0,0,0-.2.2c0,.133.146.2.4.2.4,0,.963-.035,1.448-.064.534-.026,1.018-.026,1.077-.026.369,0,1.022,0,2.066.055,1.022.035,2.472.088,4.342.088.962,0,1.216,0,1.388-.627a20.262,20.262,0,0,0,.344-2.32C325.821,64.345,325.794,64.146,325.649,64.146Z" transform="translate(-179.427 -43.706)" fill="#fff"/>
      <path id="Path_25" data-name="Path 25" d="M335.172,63.946c-.139,0-.227.139-.254.309a2.94,2.94,0,0,1-.6,1.362c-.6.711-1.7.735-3,.735-1.956,0-2.921-.168-3.322-.563-.45-.428-.508-1.876-.508-5.42V56.063c0-3.746,0-4.429.033-5.192.055-.848.19-1.221.93-1.362.285-.031.649-.059.826-.059a.207.207,0,0,0,.2-.172c0-.139-.141-.194-.4-.194-.759,0-2.632.055-2.746.055-.146,0-1.7-.055-2.833-.055-.28,0-.4.055-.4.194a.245.245,0,0,0,.2.2,7.4,7.4,0,0,1,.854.062c.825.11.964.51,1.022,1.331.055.762.055,1.446.055,5.192v4.252a48.974,48.974,0,0,1-.143,5.217c-.11.709-.17,1.165-.653,1.272a3.406,3.406,0,0,1-.764.121.191.191,0,0,0-.2.2c0,.133.144.2.395.2.4,0,.936-.035,1.45-.064.481-.026.91-.026,1.02-.026.739,0,1.589.026,2.724.055,1.161.062,2.55.088,4.333.088,1.335,0,1.419-.088,1.585-.653a14.7,14.7,0,0,0,.375-2.409C335.342,64.055,335.285,63.946,335.172,63.946Z" transform="translate(-172.223 -43.615)" fill="#fff"/>
      <path id="Path_26" data-name="Path 26" d="M343.619,63.946c-.141,0-.225.139-.249.309a3,3,0,0,1-.6,1.362c-.6.711-1.7.735-3,.735-1.96,0-2.921-.168-3.318-.563-.457-.428-.508-1.876-.508-5.42V56.063c0-3.746,0-4.429.027-5.192.053-.848.194-1.221.936-1.362.278-.031.649-.059.819-.059.084,0,.2-.082.2-.172,0-.139-.148-.194-.4-.194-.762,0-2.632.055-2.748.055-.146,0-1.7-.055-2.837-.055-.28,0-.4.055-.4.194a.241.241,0,0,0,.2.2,7.406,7.406,0,0,1,.854.062c.819.11.962.51,1.02,1.331.055.762.055,1.446.055,5.192v4.252a49.587,49.587,0,0,1-.141,5.217c-.115.709-.168,1.165-.651,1.272a3.374,3.374,0,0,1-.766.121.19.19,0,0,0-.2.2c0,.133.144.2.4.2.4,0,.934-.035,1.448-.064.479-.026.9-.026,1.02-.026.735,0,1.59.026,2.724.055,1.161.062,2.546.088,4.336.088,1.334,0,1.417-.088,1.585-.653a15.5,15.5,0,0,0,.373-2.409C343.795,64.055,343.735,63.946,343.619,63.946Z" transform="translate(-165.224 -43.615)" fill="#fff"/>
      <path id="Path_27" data-name="Path 27" d="M351.251,64.146c-.141,0-.192.09-.25.373a1.831,1.831,0,0,1-1.139,1.671,8.376,8.376,0,0,1-2.494.252c-2.462,0-2.919-.309-2.974-1.923-.035-.483,0-3.292,0-4.113V58.391a.151.151,0,0,1,.17-.174c.426,0,3.091.033,3.768.119.963.11,1.192.4,1.282.731a2.272,2.272,0,0,1,.108.8c0,.144.058.229.176.229.168,0,.221-.256.221-.453,0-.172.057-1.08.117-1.559a13.074,13.074,0,0,1,.2-1.335c0-.141-.059-.2-.143-.2s-.2.143-.366.314c-.26.256-.629.283-1.223.344-.567.053-3.857.053-4.17.053-.137,0-.137-.086-.137-.256v-6.55c0-.17.026-.256.137-.256.282,0,3.179.029,3.6.086,1.364.17,1.614.342,1.79.737a2.83,2.83,0,0,1,.141.856c0,.194.053.305.2.305.113,0,.2-.139.227-.254.059-.282.112-1.358.144-1.587.055-.675.2-.969.2-1.133,0-.117-.027-.229-.108-.229-.121,0-.232.086-.346.112a10.813,10.813,0,0,1-1.137.143c-.563.029-5.779,0-5.954,0-.139,0-1.753-.055-2.887-.055-.285,0-.4.055-.4.194a.239.239,0,0,0,.2.2,7.437,7.437,0,0,1,.854.062c.817.11.964.51,1.013,1.331.06.762.06,1.446.06,5.192v4.252a49.587,49.587,0,0,1-.141,5.217c-.115.709-.172,1.19-.653,1.272a5.9,5.9,0,0,1-.766.121.193.193,0,0,0-.2.2c0,.133.143.2.4.2.4,0,.967-.035,1.452-.064.536-.026,1.015-.026,1.071-.026.371,0,1.024,0,2.077.055,1.016.035,2.463.088,4.333.088.965,0,1.221,0,1.393-.627a20.188,20.188,0,0,0,.342-2.32C351.426,64.345,351.391,64.146,351.251,64.146Z" transform="translate(-158.225 -43.706)" fill="#fff"/>
      <path id="Path_28" data-name="Path 28" d="M367.355,66.925a4.547,4.547,0,0,1-.881-.086,4.645,4.645,0,0,1-2.779-1.678c-1.441-1.5-3.181-3.687-5.219-6.236,2.324-1.985,3.062-3.715,3.062-5.5a4.238,4.238,0,0,0-1.724-3.287,8.192,8.192,0,0,0-4.649-1.049c-.771,0-2.867.055-3.124.055-.143,0-1.817-.055-2.949-.055-.282,0-.4.055-.4.194a.241.241,0,0,0,.2.2,7.311,7.311,0,0,1,.848.062c.826.11.965.51,1.024,1.331.055.762.055,1.446.055,5.192v4.252a50.906,50.906,0,0,1-.137,5.217c-.115.709-.177,1.165-.653,1.272a3.456,3.456,0,0,1-.764.121.192.192,0,0,0-.2.2c0,.133.145.2.4.2.762,0,2.437-.09,2.466-.09.113,0,1.7.09,3.064.09.285,0,.393-.09.393-.2,0-.091-.022-.2-.2-.2a8.647,8.647,0,0,1-1.1-.121c-.768-.108-.91-.563-1-1.272-.117-.993-.117-2.866-.117-5.192v-.569c0-.141.06-.2.175-.2l3.174.058a.38.38,0,0,1,.342.141c.536.653,1.642,2.216,2.691,3.519,1.417,1.815,2.327,2.978,3.406,3.548a5.066,5.066,0,0,0,2.669.483h1.556c.451,0,.592-.064.592-.2A.215.215,0,0,0,367.355,66.925Zm-9.583-8.57a3.241,3.241,0,0,1-1.872.43,8.452,8.452,0,0,1-2.751-.371.353.353,0,0,1-.175-.311V50.361a.313.313,0,0,1,.2-.285,11.579,11.579,0,0,1,1.786-.135c2.669,0,4.309,1.722,4.309,4.731A4.307,4.307,0,0,1,357.772,58.355Z" transform="translate(-151.021 -43.615)" fill="#fff"/>
      <path id="Path_29" data-name="Path 29" d="M377.657,47.331c-.547,0-2.585.09-2.753.09-.227,0-1.137-.09-1.872-.09-.285,0-.453.058-.453.17,0,.146.168.2.428.285.333.082.452.4.452.8a2.845,2.845,0,0,1-.481,1.446c-.569.934-4.168,7.144-4.713,8.336-.5-.823-4.762-8.139-5.21-8.963a2.4,2.4,0,0,1-.369-1.106.571.571,0,0,1,.369-.508c.25-.112.424-.139.424-.258s-.06-.2-.367-.2c-1.108,0-2.187.09-2.389.09-.135,0-2.263-.09-2.8-.09-.252,0-.367.09-.367.2,0,.146.141.2.283.2a2.7,2.7,0,0,1,1.22.455,8.124,8.124,0,0,1,1.93,2.1c.991,1.477,4.793,7.715,4.991,8.166a6.131,6.131,0,0,1,.647,2.98v2.442c0,.452,0,1.64-.077,2.828-.059.828-.316,1.453-.885,1.561a4.108,4.108,0,0,1-.852.121c-.168,0-.23.08-.23.166,0,.166.144.23.457.23.846,0,2.636-.09,2.781-.09s1.93.09,3.488.09c.309,0,.45-.09.45-.23,0-.086-.053-.166-.225-.166a11.57,11.57,0,0,1-1.272-.121c-.856-.108-1.1-.733-1.164-1.561-.09-1.188-.09-2.377-.09-2.828V61.426a6.664,6.664,0,0,1,.433-2.834,90.014,90.014,0,0,1,5.409-9.022,5.5,5.5,0,0,1,1.5-1.442,2.709,2.709,0,0,1,1.309-.4c.223,0,.366-.08.366-.227C378.023,47.389,377.851,47.331,377.657,47.331Z" transform="translate(-143.688 -45.068)" fill="#fff"/>
      <path id="Path_30" data-name="Path 30" d="M451.3,46.636a.271.271,0,0,0,0-.543H240.836a.271.271,0,1,0,0,.543h80.555l.044,0c.828.115.967.51,1.018,1.336.062.762.062,1.441.062,5.184V65.513c0,6.214-.768,7.459-2.382,9.073a5.589,5.589,0,0,1-.883.654c-.221.141-.307.256-.307.395,0,.113.113.144.168.144a1.034,1.034,0,0,0,.17-.031c.252-.144.682-.395,1.02-.622,2.018-1.336,3.121-2.468,3.66-3.685.739-1.706.821-3.206.821-7.119V53.159c0-3.744,0-4.422.027-5.184.062-.852.2-1.194.877-1.336l.04,0Z" transform="translate(-240.564 -46.093)" fill="#fff"/>
    </g>
    <g id="Group_33" data-name="Group 33" transform="translate(240.779 108.166)">
      <g id="Group_31" data-name="Group 31">
        <path id="Path_31" data-name="Path 31" d="M234.589,69.078h25.535v-.536H234.589a.268.268,0,0,0,0,.536Z" transform="translate(-234.322 -68.542)" fill="#fff"/>
      </g>
      <g id="Group_32" data-name="Group 32" transform="translate(205.694)">
        <path id="Path_32" data-name="Path 32" d="M372.371,68.542H346.84v.534h25.531a.275.275,0,0,0,.269-.267A.271.271,0,0,0,372.371,68.542Z" transform="translate(-346.84 -68.542)" fill="#fff"/>
      </g>
    </g>
    <g id="Group_34" data-name="Group 34" transform="translate(271.908 104.095)">
      <path id="Path_33" data-name="Path 33" d="M254.734,71.228c0,.854,0,1.554.046,1.918.031.263.069.426.351.468a3.783,3.783,0,0,0,.417.044c.066,0,.075.042.075.071s-.044.075-.15.075c-.5,0-1.077-.031-1.13-.031s-.682.031-.952.031c-.106,0-.143-.022-.143-.075,0-.029.018-.06.073-.06a1.323,1.323,0,0,0,.271-.044c.185-.037.236-.216.269-.479.042-.364.042-1.064.042-1.918V67.5l-1.324.022c-.572.011-.792.073-.929.283a1.746,1.746,0,0,0-.148.28c-.018.069-.049.082-.091.082a.066.066,0,0,1-.06-.071c0-.1.186-.887.2-.96.02-.055.062-.168.093-.168a2.927,2.927,0,0,0,.406.106c.265.029.616.04.72.04h3.464a4.719,4.719,0,0,0,.655-.04c.135-.02.221-.044.26-.044s.044.051.044.106c0,.272-.033.9-.033,1.013,0,.069-.04.113-.08.113s-.066-.031-.075-.157l-.011-.093c-.029-.271-.229-.468-1.106-.49l-1.148-.022Z" transform="translate(-251.35 -65.771)" fill="#fff"/>
      <path id="Path_34" data-name="Path 34" d="M256.721,71.171c0,.854,0,1.554.046,1.918.029.263.058.426.331.468a3.962,3.962,0,0,0,.417.044.072.072,0,0,1,.075.071c0,.044-.044.075-.152.075-.508,0-1.1-.031-1.146-.031s-.621.031-.9.031c-.1,0-.15-.022-.15-.075a.073.073,0,0,1,.075-.071,1.348,1.348,0,0,0,.28-.044c.177-.042.214-.2.241-.468.042-.364.053-1.064.053-1.918V69.606c0-1.375,0-1.625-.022-1.912s-.1-.433-.293-.475a1.583,1.583,0,0,0-.28-.033.08.08,0,0,1-.075-.073c0-.051.044-.071.148-.071.3,0,.876.02.925.02s.638-.02.921-.02c.1,0,.144.02.144.071a.092.092,0,0,1-.073.073.933.933,0,0,0-.227.022c-.254.053-.305.177-.329.486-.007.287-.007.537-.007,1.912Z" transform="translate(-248.147 -65.714)" fill="#fff"/>
      <path id="Path_35" data-name="Path 35" d="M265.2,72.654c.031.314.093.793.468.918a1.89,1.89,0,0,0,.594.086c.046,0,.075.02.075.062s-.08.084-.188.084c-.208,0-1.228-.022-1.563-.053-.219-.022-.265-.051-.265-.093a.07.07,0,0,1,.064-.069c.053-.016.066-.15.046-.314l-.441-4.486h-.022l-2.208,4.525c-.19.388-.241.47-.324.47s-.135-.082-.316-.408c-.234-.435-.841-1.572-1.073-2.053-.271-.563-1.011-2.053-1.165-2.419h-.046l-.353,4c-.009.135-.009.305-.009.45a.252.252,0,0,0,.218.254,1.773,1.773,0,0,0,.355.049.07.07,0,0,1,.069.062c0,.062-.059.084-.163.084-.342,0-.782-.031-.856-.031s-.521.031-.773.031c-.09,0-.155-.022-.155-.084,0-.033.042-.062.1-.062a1.936,1.936,0,0,0,.274-.033c.3-.053.311-.373.349-.706l.669-5.788c.011-.1.055-.159.106-.159a.216.216,0,0,1,.19.135l2.77,5.508,2.667-5.5c.048-.084.084-.146.148-.146s.117.077.135.241Z" transform="translate(-246.533 -65.771)" fill="#fff"/>
      <path id="Path_36" data-name="Path 36" d="M263.419,69.638c0-1.375,0-1.625-.016-1.912s-.075-.444-.377-.486a2.825,2.825,0,0,0-.313-.022.091.091,0,0,1-.073-.073c0-.051.042-.071.146-.071.415,0,1.007.02,1.062.02s1.98.013,2.188,0a3.342,3.342,0,0,0,.42-.055c.044-.006.079-.037.126-.037.029,0,.037.037.037.08a4.2,4.2,0,0,0-.069.419c-.015.082-.027.479-.049.583-.016.044-.044.093-.084.093s-.075-.044-.075-.113a1,1,0,0,0-.055-.314c-.06-.144-.155-.208-.656-.271-.157-.02-1.219-.029-1.322-.029-.046,0-.053.029-.053.091v2.409c0,.064,0,.093.053.093.113,0,1.322,0,1.53-.022s.356-.029.448-.121c.062-.064.1-.119.139-.119s.051.02.051.077-.051.2-.077.49c-.016.174-.038.51-.038.57s-.02.168-.082.168c-.044,0-.064-.029-.064-.084a.74.74,0,0,0-.044-.291c-.027-.126-.112-.229-.466-.272-.25-.033-1.23-.042-1.387-.042-.055,0-.062.031-.062.064v.74c0,.3-.009,1.335,0,1.514.02.59.188.706,1.093.706a3.039,3.039,0,0,0,.916-.093.669.669,0,0,0,.421-.612c.02-.106.04-.135.09-.135s.064.071.064.135a7.031,7.031,0,0,1-.122.854c-.062.23-.155.23-.51.23-.687,0-1.225-.022-1.6-.035-.387-.018-.627-.018-.762-.018-.024,0-.2,0-.4.009-.176.009-.386.022-.532.022-.091,0-.143-.022-.143-.075a.07.07,0,0,1,.071-.071,2.351,2.351,0,0,0,.28-.044c.179-.026.2-.2.239-.468a18.393,18.393,0,0,0,.051-1.918Z" transform="translate(-242.001 -65.746)" fill="#fff"/>
      <path id="Path_37" data-name="Path 37" d="M267.4,71.193c0,1.3.024,1.834.19,1.991.146.146.5.207,1.219.207.479,0,.889-.009,1.106-.272a1.028,1.028,0,0,0,.217-.5c.011-.062.042-.115.093-.115s.064.044.064.135a6.365,6.365,0,0,1-.132.89c-.068.2-.1.238-.589.238-.658,0-1.166-.013-1.594-.035s-.728-.018-1-.018c-.044,0-.2,0-.375.009-.188.009-.388.022-.534.022-.093,0-.146-.022-.146-.075a.071.071,0,0,1,.073-.071,1.422,1.422,0,0,0,.283-.044c.174-.042.2-.2.241-.468a19.061,19.061,0,0,0,.049-1.918V69.606c0-1.375,0-1.625-.022-1.912s-.073-.444-.373-.486a2.883,2.883,0,0,0-.313-.022.1.1,0,0,1-.077-.073c0-.051.046-.071.145-.071.42,0,.994.02,1.047.02s.728-.02,1.007-.02c.1,0,.146.02.146.071a.082.082,0,0,1-.071.064c-.064,0-.2.009-.3.02-.272.053-.324.188-.342.5-.015.287-.015.537-.015,1.912Z" transform="translate(-239.401 -65.714)" fill="#fff"/>
      <path id="Path_38" data-name="Path 38" d="M269.613,69.638c0-1.375,0-1.625-.024-1.912s-.075-.444-.377-.486a2.757,2.757,0,0,0-.309-.022.094.094,0,0,1-.075-.073c0-.051.044-.071.148-.071.419,0,1.007.02,1.06.02s1.983.013,2.19,0a3.3,3.3,0,0,0,.419-.055c.042-.006.082-.037.126-.037s.04.037.04.08a4.007,4.007,0,0,0-.075.419c-.009.082-.031.479-.049.583-.013.044-.042.093-.084.093s-.073-.044-.073-.113a.977.977,0,0,0-.051-.314c-.064-.144-.155-.208-.658-.271-.155-.02-1.221-.029-1.324-.029-.04,0-.051.029-.051.091v2.409c0,.064,0,.093.051.093.115,0,1.324,0,1.534-.022s.353-.029.448-.121c.062-.064.106-.119.133-.119s.055.02.055.077a4.276,4.276,0,0,0-.075.49c-.02.174-.042.51-.042.57s-.02.168-.084.168c-.038,0-.06-.029-.06-.084a.769.769,0,0,0-.042-.291c-.033-.126-.115-.229-.47-.272-.247-.033-1.229-.042-1.386-.042-.051,0-.062.031-.062.064v.74c0,.3-.013,1.335,0,1.514.02.59.187.706,1.093.706a3.087,3.087,0,0,0,.92-.093.675.675,0,0,0,.417-.612c.02-.106.038-.135.093-.135s.064.071.064.135a7.919,7.919,0,0,1-.124.854c-.069.23-.159.23-.517.23-.686,0-1.218-.022-1.591-.035-.389-.018-.627-.018-.764-.018-.018,0-.194,0-.395.009-.175.009-.386.022-.534.022-.09,0-.146-.022-.146-.075a.074.074,0,0,1,.077-.071,2.5,2.5,0,0,0,.282-.044c.174-.026.194-.2.238-.468a17.21,17.21,0,0,0,.055-1.918Z" transform="translate(-236.876 -65.746)" fill="#fff"/>
      <path id="Path_39" data-name="Path 39" d="M272.037,73.68c-.123-.064-.137-.09-.137-.333,0-.441.044-.8.051-.938,0-.093.02-.146.077-.146s.082.031.082.1a1.317,1.317,0,0,0,.031.32,1.351,1.351,0,0,0,1.45.877c.9,0,1.373-.508,1.373-1.177,0-.638-.34-.936-1.153-1.541l-.417-.313c-.989-.744-1.314-1.285-1.314-1.9,0-1.042.823-1.664,2.033-1.664a4.6,4.6,0,0,1,.951.1,1.136,1.136,0,0,0,.324.044c.069,0,.1.011.1.062a9.022,9.022,0,0,0-.044.94c0,.135-.011.2-.073.2s-.073-.042-.082-.113a1.914,1.914,0,0,0-.135-.444c-.062-.1-.366-.433-1.192-.433-.667,0-1.219.331-1.219.96,0,.563.282.888,1.19,1.5l.26.175c1.119.762,1.5,1.38,1.5,2.139a1.744,1.744,0,0,1-.859,1.515,2.85,2.85,0,0,1-1.459.311A3.373,3.373,0,0,1,272.037,73.68Z" transform="translate(-234.333 -65.773)" fill="#fff"/>
      <path id="Path_40" data-name="Path 40" d="M275.022,73.68c-.128-.064-.133-.09-.133-.333,0-.441.04-.8.048-.938,0-.093.024-.146.077-.146s.08.031.08.1a1.247,1.247,0,0,0,.033.32,1.351,1.351,0,0,0,1.45.877c.9,0,1.373-.508,1.373-1.177,0-.638-.342-.936-1.155-1.541l-.415-.313c-.993-.744-1.314-1.285-1.314-1.9,0-1.042.825-1.664,2.033-1.664a4.6,4.6,0,0,1,.951.1,1.125,1.125,0,0,0,.322.044c.071,0,.093.011.093.062s-.038.335-.038.94c0,.135-.013.2-.077.2s-.071-.042-.082-.113a1.688,1.688,0,0,0-.137-.444c-.059-.1-.364-.433-1.188-.433-.667,0-1.219.331-1.219.96,0,.563.281.888,1.188,1.5l.263.175c1.115.762,1.5,1.38,1.5,2.139a1.736,1.736,0,0,1-.863,1.515,2.824,2.824,0,0,1-1.455.311A3.379,3.379,0,0,1,275.022,73.68Z" transform="translate(-231.857 -65.773)" fill="#fff"/>
      <path id="Path_41" data-name="Path 41" d="M282.855,71.228c0,.854,0,1.554.044,1.918.026.263.069.426.351.468a3.736,3.736,0,0,0,.422.044.063.063,0,0,1,.068.071c0,.044-.04.075-.144.075-.5,0-1.08-.031-1.137-.031s-.678.031-.949.031c-.106,0-.144-.022-.144-.075,0-.029.018-.06.069-.06a1.247,1.247,0,0,0,.271-.044c.19-.037.24-.216.272-.479.044-.364.044-1.064.044-1.918V67.5l-1.325.022c-.576.011-.794.073-.929.283a1.429,1.429,0,0,0-.146.28c-.022.069-.053.082-.09.082a.069.069,0,0,1-.069-.071c0-.1.188-.887.2-.96.016-.055.06-.168.093-.168a2.732,2.732,0,0,0,.409.106c.26.029.612.04.715.04h3.466a4.605,4.605,0,0,0,.653-.04c.133-.02.219-.044.263-.044s.038.051.038.106c0,.272-.033.9-.033,1.013,0,.069-.037.113-.08.113s-.062-.031-.069-.157l-.013-.093c-.031-.271-.229-.468-1.108-.49l-1.144-.022Z" transform="translate(-228.07 -65.771)" fill="#fff"/>
      <path id="Path_42" data-name="Path 42" d="M284.055,69.606c0-1.375,0-1.625-.024-1.912s-.071-.444-.373-.486a2.851,2.851,0,0,0-.311-.022.091.091,0,0,1-.077-.073c0-.051.042-.071.146-.071.415,0,1.035.02,1.084.02.1,0,.865-.02,1.15-.02a2.966,2.966,0,0,1,1.706.386,1.55,1.55,0,0,1,.638,1.21,2.585,2.585,0,0,1-1.13,2.022c.755.938,1.393,1.742,1.919,2.292a1.7,1.7,0,0,0,1.026.616,1.594,1.594,0,0,0,.323.033.081.081,0,0,1,.082.071c0,.053-.053.075-.218.075h-.574a1.826,1.826,0,0,1-.978-.179,4.613,4.613,0,0,1-1.254-1.3c-.386-.477-.792-1.053-.989-1.294a.14.14,0,0,0-.128-.049l-1.166-.024c-.044,0-.062.024-.062.073v.2c0,.859,0,1.548.04,1.912.031.263.082.426.364.468a3.668,3.668,0,0,0,.41.044.066.066,0,0,1,.073.071c0,.044-.04.075-.148.075-.5,0-1.084-.031-1.124-.031,0,0-.629.031-.907.031-.1,0-.146-.022-.146-.075a.071.071,0,0,1,.073-.071,1.386,1.386,0,0,0,.282-.044c.175-.042.2-.2.241-.468a18.372,18.372,0,0,0,.051-1.918Zm.791.751a.137.137,0,0,0,.062.117,3.248,3.248,0,0,0,1.016.133,1.221,1.221,0,0,0,.687-.155,1.6,1.6,0,0,0,.548-1.358,1.528,1.528,0,0,0-1.585-1.739,4.523,4.523,0,0,0-.658.048.123.123,0,0,0-.071.106Z" transform="translate(-224.916 -65.714)" fill="#fff"/>
      <path id="Path_43" data-name="Path 43" d="M287.883,69.638c0-1.375,0-1.625-.022-1.912s-.071-.444-.371-.486a2.924,2.924,0,0,0-.313-.022.089.089,0,0,1-.077-.073c0-.051.04-.071.15-.071.415,0,1.007.02,1.06.02s1.982.013,2.19,0a3.3,3.3,0,0,0,.417-.055c.044-.006.082-.037.128-.037.029,0,.038.037.038.08,0,.062-.051.168-.071.419-.013.082-.033.479-.051.583-.013.044-.044.093-.082.093s-.075-.044-.075-.113a.934.934,0,0,0-.053-.314c-.062-.144-.155-.208-.658-.271-.154-.02-1.219-.029-1.322-.029-.046,0-.051.029-.051.091v2.409c0,.064,0,.093.051.093.113,0,1.322,0,1.532-.022s.357-.029.448-.121c.064-.064.106-.119.135-.119s.053.02.053.077a4.8,4.8,0,0,0-.075.49c-.022.174-.036.51-.036.57s-.024.168-.088.168c-.04,0-.06-.029-.06-.084a.741.741,0,0,0-.044-.291c-.029-.126-.113-.229-.466-.272-.25-.033-1.23-.042-1.389-.042-.055,0-.06.031-.06.064v.74c0,.3-.016,1.335,0,1.514.018.59.188.706,1.091.706a3.069,3.069,0,0,0,.918-.093.668.668,0,0,0,.419-.612c.022-.106.042-.135.093-.135s.064.071.064.135a7.948,7.948,0,0,1-.124.854c-.062.23-.157.23-.51.23-.687,0-1.223-.022-1.6-.035s-.625-.018-.764-.018c-.02,0-.2,0-.4.009-.174.009-.389.022-.53.022-.091,0-.144-.022-.144-.075a.068.068,0,0,1,.071-.071,2.235,2.235,0,0,0,.28-.044c.177-.026.2-.2.24-.468a17.792,17.792,0,0,0,.053-1.918Z" transform="translate(-221.745 -65.746)" fill="#fff"/>
      <path id="Path_44" data-name="Path 44" d="M292.922,67.295c.119-.294.155-.346.219-.346.1,0,.126.128.218.324.17.377,1.636,4.036,2.2,5.382.336.8.585.9.782.973a1.446,1.446,0,0,0,.368.049c.048,0,.113.02.113.071s-.1.075-.212.075c-.135,0-.812,0-1.448-.022-.177-.009-.325-.009-.325-.062s.022-.042.068-.062a.167.167,0,0,0,.08-.241l-.821-2.033c-.022-.044-.035-.049-.084-.049h-2.121c-.037,0-.068.02-.093.071l-.517,1.417a1.763,1.763,0,0,0-.137.594c0,.179.159.241.313.241h.082c.075,0,.1.029.1.071s-.055.075-.137.075c-.217,0-.72-.031-.823-.031s-.554.031-.931.031c-.112,0-.177-.022-.177-.075a.081.081,0,0,1,.084-.071,2.286,2.286,0,0,0,.269-.024c.422-.046.6-.36.777-.812Zm1.022,3.691c.042,0,.042-.022.035-.062L293.07,68.5c-.053-.139-.106-.139-.157,0l-.854,2.428c-.015.04,0,.062.029.062Z" transform="translate(-219.645 -65.79)" fill="#fff"/>
      <path id="Path_45" data-name="Path 45" d="M293.916,73.68c-.124-.064-.135-.09-.135-.333,0-.441.046-.8.053-.938,0-.093.02-.146.073-.146s.082.031.082.1a1.315,1.315,0,0,0,.031.32,1.351,1.351,0,0,0,1.45.877c.907,0,1.375-.508,1.375-1.177,0-.638-.342-.936-1.154-1.541l-.415-.313c-1-.744-1.316-1.285-1.316-1.9,0-1.042.824-1.664,2.033-1.664a4.6,4.6,0,0,1,.951.1,1.109,1.109,0,0,0,.32.044c.073,0,.095.011.095.062a9.015,9.015,0,0,0-.044.94c0,.135-.005.2-.068.2s-.075-.042-.088-.113a1.613,1.613,0,0,0-.133-.444c-.064-.1-.367-.433-1.192-.433-.664,0-1.217.331-1.217.96,0,.563.28.888,1.19,1.5l.259.175c1.113.762,1.5,1.38,1.5,2.139a1.738,1.738,0,0,1-.857,1.515,2.836,2.836,0,0,1-1.455.311A3.391,3.391,0,0,1,293.916,73.68Z" transform="translate(-216.213 -65.773)" fill="#fff"/>
      <path id="Path_46" data-name="Path 46" d="M297.362,69.606c0-1.375,0-1.625-.024-1.912s-.069-.444-.371-.486a2.918,2.918,0,0,0-.314-.022.092.092,0,0,1-.073-.073c0-.051.042-.071.146-.071.415,0,.967.02,1.051.02s.656-.02.929-.02c.1,0,.159.02.159.071a.09.09,0,0,1-.084.073,1.008,1.008,0,0,0-.229.022c-.243.042-.294.2-.316.486s-.02.537-.02,1.912v1.241c0,1.282.283,1.815.678,2.168a1.8,1.8,0,0,0,1.367.479,1.877,1.877,0,0,0,1.42-.625,3.275,3.275,0,0,0,.517-2.146V69.606c0-1.375-.009-1.625-.022-1.912s-.06-.444-.362-.486a2.823,2.823,0,0,0-.315-.022.076.076,0,0,1-.069-.073c0-.051.037-.071.141-.071.411,0,.94.02.993.02s.5-.02.77-.02c.106,0,.146.02.146.071a.076.076,0,0,1-.07.073,1.053,1.053,0,0,0-.232.022c-.249.053-.3.2-.32.486s-.013.537-.013,1.912v.949a3.406,3.406,0,0,1-.856,2.662,2.8,2.8,0,0,1-1.918.645,2.515,2.515,0,0,1-2.711-2.952Z" transform="translate(-213.895 -65.714)" fill="#fff"/>
      <path id="Path_47" data-name="Path 47" d="M301.792,69.606c0-1.375,0-1.625-.02-1.912s-.075-.444-.375-.486a2.853,2.853,0,0,0-.314-.022.094.094,0,0,1-.075-.073c0-.051.044-.071.144-.071.419,0,1.035.02,1.09.02.091,0,.865-.02,1.144-.02a2.977,2.977,0,0,1,1.709.386,1.55,1.55,0,0,1,.638,1.21,2.587,2.587,0,0,1-1.128,2.022c.751.938,1.389,1.742,1.918,2.292a1.676,1.676,0,0,0,1.027.616,1.574,1.574,0,0,0,.318.033.085.085,0,0,1,.088.071c0,.053-.053.075-.221.075h-.574a1.837,1.837,0,0,1-.98-.179,4.66,4.66,0,0,1-1.252-1.3c-.386-.477-.792-1.053-.991-1.294a.127.127,0,0,0-.121-.049l-1.172-.024c-.044,0-.06.024-.06.073v.2c0,.859,0,1.548.04,1.912.031.263.081.426.364.468a3.58,3.58,0,0,0,.409.044.064.064,0,0,1,.071.071c0,.044-.042.075-.144.075-.5,0-1.084-.031-1.128-.031-.011,0-.627.031-.91.031-.091,0-.141-.022-.141-.075a.07.07,0,0,1,.071-.071,1.386,1.386,0,0,0,.282-.044c.175-.042.2-.2.241-.468a18.382,18.382,0,0,0,.051-1.918Zm.793.751a.135.135,0,0,0,.06.117,3.223,3.223,0,0,0,1.011.133,1.227,1.227,0,0,0,.691-.155,1.6,1.6,0,0,0,.554-1.358,1.53,1.53,0,0,0-1.589-1.739,4.5,4.5,0,0,0-.656.048.127.127,0,0,0-.071.106Z" transform="translate(-210.228 -65.714)" fill="#fff"/>
      <path id="Path_48" data-name="Path 48" d="M305.62,69.638c0-1.375,0-1.625-.016-1.912s-.079-.444-.375-.486a2.992,2.992,0,0,0-.314-.022.089.089,0,0,1-.077-.073c0-.051.04-.071.148-.071.417,0,1.009.02,1.064.02s1.978.013,2.186,0a3.3,3.3,0,0,0,.42-.055c.044-.006.082-.037.126-.037s.038.037.038.08c0,.062-.051.168-.071.419-.011.082-.033.479-.049.583-.016.044-.044.093-.084.093s-.073-.044-.073-.113a.945.945,0,0,0-.055-.314c-.058-.144-.155-.208-.655-.271-.157-.02-1.221-.029-1.325-.029-.044,0-.051.029-.051.091v2.409c0,.064,0,.093.051.093.113,0,1.325,0,1.532-.022s.355-.029.448-.121c.062-.064.108-.119.135-.119s.055.02.055.077a4.532,4.532,0,0,0-.077.49c-.018.174-.038.51-.038.57s-.02.168-.084.168c-.042,0-.062-.029-.062-.084a.741.741,0,0,0-.044-.291c-.029-.126-.113-.229-.466-.272-.25-.033-1.232-.042-1.388-.042-.055,0-.062.031-.062.064v.74c0,.3-.009,1.335,0,1.514.02.59.186.706,1.091.706a3.045,3.045,0,0,0,.916-.093.666.666,0,0,0,.42-.612c.02-.106.04-.135.093-.135s.064.071.064.135a7.1,7.1,0,0,1-.124.854c-.066.23-.157.23-.514.23-.684,0-1.219-.022-1.594-.035s-.627-.018-.76-.018c-.02,0-.2,0-.395.009-.179.009-.389.022-.536.022-.091,0-.143-.022-.143-.075a.068.068,0,0,1,.068-.071,2.241,2.241,0,0,0,.283-.044c.177-.026.2-.2.241-.468a18.415,18.415,0,0,0,.051-1.918Z" transform="translate(-207.057 -65.746)" fill="#fff"/>
      <path id="Path_49" data-name="Path 49" d="M308.044,73.68c-.122-.064-.133-.09-.133-.333,0-.441.042-.8.051-.938,0-.093.022-.146.073-.146s.084.031.084.1a1.317,1.317,0,0,0,.031.32,1.354,1.354,0,0,0,1.448.877c.912,0,1.377-.508,1.377-1.177,0-.638-.345-.936-1.154-1.541l-.419-.313c-.989-.744-1.314-1.285-1.314-1.9,0-1.042.823-1.664,2.031-1.664a4.572,4.572,0,0,1,.951.1,1.139,1.139,0,0,0,.325.044c.07,0,.095.011.095.062s-.042.335-.042.94c0,.135-.013.2-.071.2s-.079-.042-.086-.113a1.755,1.755,0,0,0-.135-.444c-.064-.1-.367-.433-1.194-.433-.665,0-1.216.331-1.216.96,0,.563.278.888,1.186,1.5l.263.175c1.115.762,1.5,1.38,1.5,2.139a1.744,1.744,0,0,1-.856,1.515,2.848,2.848,0,0,1-1.461.311A3.382,3.382,0,0,1,308.044,73.68Z" transform="translate(-204.512 -65.773)" fill="#fff"/>
      <path id="Path_50" data-name="Path 50" d="M312.887,73.68c-.13-.064-.137-.09-.137-.333,0-.441.042-.8.048-.938,0-.093.026-.146.073-.146s.084.031.084.1a1.128,1.128,0,0,0,.036.32,1.345,1.345,0,0,0,1.448.877c.9,0,1.375-.508,1.375-1.177,0-.638-.342-.936-1.155-1.541l-.42-.313c-.991-.744-1.313-1.285-1.313-1.9,0-1.042.828-1.664,2.031-1.664a4.619,4.619,0,0,1,.952.1,1.136,1.136,0,0,0,.324.044c.071,0,.093.011.093.062s-.042.335-.042.94c0,.135-.011.2-.071.2s-.075-.042-.086-.113a1.614,1.614,0,0,0-.135-.444c-.062-.1-.364-.433-1.188-.433-.667,0-1.221.331-1.221.96,0,.563.285.888,1.19,1.5l.26.175c1.115.762,1.5,1.38,1.5,2.139a1.734,1.734,0,0,1-.854,1.515,2.855,2.855,0,0,1-1.463.311A3.349,3.349,0,0,1,312.887,73.68Z" transform="translate(-200.505 -65.773)" fill="#fff"/>
      <path id="Path_51" data-name="Path 51" d="M317.256,71.171c0,.854,0,1.554.04,1.918.031.263.064.426.335.468a3.924,3.924,0,0,0,.42.044.069.069,0,0,1,.069.071c0,.044-.04.075-.146.075-.51,0-1.1-.031-1.148-.031s-.625.031-.907.031c-.09,0-.143-.022-.143-.075a.069.069,0,0,1,.07-.071,1.383,1.383,0,0,0,.283-.044c.175-.042.208-.2.238-.468.044-.364.053-1.064.053-1.918V69.606c0-1.375,0-1.625-.02-1.912s-.1-.433-.293-.475a1.545,1.545,0,0,0-.278-.033.081.081,0,0,1-.077-.073c0-.051.044-.071.148-.071.3,0,.872.02.925.02s.638-.02.918-.02c.1,0,.148.02.148.071a.094.094,0,0,1-.073.073.968.968,0,0,0-.228.022c-.25.053-.3.177-.327.486-.007.287-.007.537-.007,1.912Z" transform="translate(-198.018 -65.714)" fill="#fff"/>
      <path id="Path_52" data-name="Path 52" d="M319.014,72.593c.02.729.1.947.355,1.015a2.547,2.547,0,0,0,.459.049.071.071,0,0,1,.073.071c0,.053-.062.075-.168.075-.523,0-.885-.031-.969-.031s-.47.031-.887.031c-.093,0-.146-.013-.146-.075a.069.069,0,0,1,.071-.071,1.7,1.7,0,0,0,.38-.049c.227-.068.26-.3.26-1.11V67.42c0-.356.051-.448.122-.448.1,0,.261.175.356.271.144.148,1.481,1.567,2.9,3.026.909.938,1.887,1.993,2.168,2.281l-.093-4.44c-.009-.572-.06-.77-.344-.824a2.96,2.96,0,0,0-.45-.042c-.062,0-.071-.049-.071-.082,0-.053.071-.062.179-.062.415,0,.852.02.96.02s.406-.02.781-.02c.093,0,.168.009.168.062a.1.1,0,0,1-.1.082,1,1,0,0,0-.221.022c-.3.062-.325.239-.325.773l-.022,5.192c0,.583-.007.636-.071.636-.093,0-.185-.075-.7-.543-.091-.082-1.42-1.384-2.388-2.4-1.066-1.117-2.1-2.2-2.376-2.512Z" transform="translate(-196.38 -65.771)" fill="#fff"/>
      <path id="Path_53" data-name="Path 53" d="M323.439,72.968a3.314,3.314,0,0,1-1.121-2.629,3.488,3.488,0,0,1,1.037-2.417,3.777,3.777,0,0,1,2.793-.951,9.006,9.006,0,0,1,1.334.106,7.176,7.176,0,0,0,.94.135c.09,0,.113.04.113.093,0,.071-.024.177-.044.5-.009.291-.009.779-.018.9s-.051.188-.1.188-.071-.062-.071-.188a1.167,1.167,0,0,0-.386-.887,2.989,2.989,0,0,0-1.806-.488,2.8,2.8,0,0,0-2.062.612,2.9,2.9,0,0,0-.824,2.316,3.219,3.219,0,0,0,3.3,3.21,1.929,1.929,0,0,0,1.512-.415,1.681,1.681,0,0,0,.357-.74c.02-.093.031-.122.091-.122.042,0,.084.06.084.122a9.546,9.546,0,0,1-.219,1.135c-.049.166-.077.2-.23.261a5.407,5.407,0,0,1-1.658.2A4.3,4.3,0,0,1,323.439,72.968Z" transform="translate(-192.581 -65.771)" fill="#fff"/>
      <path id="Path_54" data-name="Path 54" d="M327.281,69.638c0-1.375,0-1.625-.022-1.912s-.075-.444-.377-.486a2.763,2.763,0,0,0-.313-.022.094.094,0,0,1-.073-.073c0-.051.044-.071.148-.071.417,0,1.009.02,1.058.02.066,0,1.984.013,2.194,0a3.384,3.384,0,0,0,.421-.055c.037-.006.081-.037.124-.037.027,0,.042.037.042.08,0,.062-.055.168-.077.419-.009.082-.031.479-.053.583-.007.044-.037.093-.084.093s-.073-.044-.073-.113a.966.966,0,0,0-.049-.314c-.062-.144-.153-.208-.658-.271-.156-.02-1.218-.029-1.324-.029-.042,0-.055.029-.055.091v2.409c0,.064,0,.093.055.093.117,0,1.324,0,1.536-.022s.353-.029.446-.121c.064-.064.1-.119.135-.119s.051.02.051.077a4.482,4.482,0,0,0-.069.49c-.024.174-.046.51-.046.57s-.022.168-.082.168c-.037,0-.059-.029-.059-.084a.74.74,0,0,0-.044-.291c-.035-.126-.117-.229-.47-.272-.252-.033-1.232-.042-1.391-.042a.056.056,0,0,0-.062.064v.74c0,.3-.007,1.335,0,1.514.024.59.192.706,1.1.706a3.063,3.063,0,0,0,.916-.093.682.682,0,0,0,.422-.612c.015-.106.038-.135.09-.135s.068.071.068.135a7.272,7.272,0,0,1-.13.854c-.064.23-.155.23-.514.23-.689,0-1.219-.022-1.594-.035s-.627-.018-.764-.018c-.022,0-.194,0-.395.009-.177.009-.386.022-.53.022-.1,0-.146-.022-.146-.075a.071.071,0,0,1,.073-.071,2.532,2.532,0,0,0,.283-.044c.177-.026.2-.2.24-.468a17.812,17.812,0,0,0,.053-1.918Z" transform="translate(-189.121 -65.746)" fill="#fff"/>
      <path id="Path_55" data-name="Path 55" d="M334.056,71.178a23.9,23.9,0,0,0,.049,2.4c.044.322.086.477.419.556.157.026.6.057.687.057a.1.1,0,0,1,.091.084c0,.053-.051.075-.174.075-.784,0-1.448-.031-1.5-.031s-.932.031-1.6.031c-.113,0-.177-.022-.177-.075a.091.091,0,0,1,.086-.084,6.472,6.472,0,0,0,.83-.073c.347-.062.419-.218.442-.539.027-.463.027-1.356.027-2.4V67.765c0-.208-.02-.32-.185-.32a6.07,6.07,0,0,0-1.188.5.2.2,0,0,1-.128.044c-.031,0-.071-.051-.071-.091a.186.186,0,0,1,.071-.108l2.013-1.344a.561.561,0,0,1,.25-.128c.082,0,.115.117.115.221,0,.082-.042,1.115-.053,2.713Z" transform="translate(-184.84 -66.315)" fill="#fff"/>
      <path id="Path_56" data-name="Path 56" d="M339.45,69.154a6.311,6.311,0,0,1-3.609,5.369.357.357,0,0,1-.168.042.093.093,0,0,1-.082-.1.161.161,0,0,1,.1-.146,5.7,5.7,0,0,0,2.834-4.863c0-1.824-.8-2.753-1.718-2.753a1.459,1.459,0,0,0-1.43,1.594,1.851,1.851,0,0,0,1.563,2.077,1.481,1.481,0,0,0,.837-.185.279.279,0,0,1,.133-.064c.031,0,.055.044.055.077a.1.1,0,0,1-.044.08,1.8,1.8,0,0,1-1.252.481,2,2,0,0,1-2.106-2.015,2.369,2.369,0,0,1,2.494-2.431C338.529,66.315,339.45,67.571,339.45,69.154Z" transform="translate(-182.438 -66.315)" fill="#fff"/>
      <path id="Path_57" data-name="Path 57" d="M340.563,71.178c-.009,1.042,0,1.936.051,2.4.04.322.084.477.419.556.155.026.592.057.689.057a.1.1,0,0,1,.091.084c0,.053-.051.075-.177.075-.779,0-1.45-.031-1.5-.031s-.927.031-1.594.031c-.115,0-.177-.022-.177-.075a.09.09,0,0,1,.084-.084,6.528,6.528,0,0,0,.83-.073c.349-.062.419-.218.439-.539.031-.463.031-1.356.031-2.4V67.765c0-.208-.02-.32-.183-.32a6.2,6.2,0,0,0-1.194.5.184.184,0,0,1-.122.044c-.031,0-.071-.051-.071-.091a.156.156,0,0,1,.071-.108l2.011-1.344a.578.578,0,0,1,.25-.128c.082,0,.113.117.113.221,0,.082-.037,1.115-.051,2.713Z" transform="translate(-179.449 -66.315)" fill="#fff"/>
      <path id="Path_58" data-name="Path 58" d="M343.817,71.178c-.009,1.042,0,1.936.055,2.4.04.322.082.477.415.556.161.026.6.057.686.057a.1.1,0,0,1,.1.084c0,.053-.051.075-.174.075-.788,0-1.452-.031-1.5-.031s-.929.031-1.594.031c-.117,0-.177-.022-.177-.075a.092.092,0,0,1,.086-.084,6.607,6.607,0,0,0,.834-.073c.344-.062.417-.218.433-.539.035-.463.035-1.356.035-2.4V67.765c0-.208-.022-.32-.192-.32a6.344,6.344,0,0,0-1.186.5.192.192,0,0,1-.126.044c-.031,0-.07-.051-.07-.091a.173.173,0,0,1,.07-.108l2.016-1.344a.543.543,0,0,1,.247-.128c.086,0,.115.117.115.221,0,.082-.04,1.115-.051,2.713Z" transform="translate(-176.754 -66.315)" fill="#fff"/>
    </g>
  </g>
</svg>
