<svg xmlns="http://www.w3.org/2000/svg" xmlns:xlink="http://www.w3.org/1999/xlink" width="24" height="24" viewBox="0 0 24 24">
  <defs>
    <clipPath id="clip-path">
      <rect id="Rectangle_34" data-name="Rectangle 34" width="24" height="24" transform="translate(1188 4403)" fill="#fff"/>
    </clipPath>
  </defs>
  <g id="Mask_Group_11" data-name="Mask Group 11" transform="translate(-1188 -4403)" clip-path="url(#clip-path)">
    <g id="twitter-sign" transform="translate(1188 4403)">
      <path id="Path_152" data-name="Path 152" d="M22.68,1.32A4.334,4.334,0,0,0,19.5,0H4.5A4.335,4.335,0,0,0,1.32,1.32,4.335,4.335,0,0,0,0,4.5v15a4.335,4.335,0,0,0,1.32,3.18A4.335,4.335,0,0,0,4.5,24h15A4.508,4.508,0,0,0,24,19.5V4.5A4.335,4.335,0,0,0,22.68,1.32Zm-4.32,7.914a4.143,4.143,0,0,1,.016.422A9.455,9.455,0,0,1,16.82,14.82a9.848,9.848,0,0,1-1.882,2.141,8.451,8.451,0,0,1-2.625,1.484A9.553,9.553,0,0,1,9.032,19,9.208,9.208,0,0,1,4,17.531a6.332,6.332,0,0,0,.781.047A6.482,6.482,0,0,0,8.86,16.172a3.113,3.113,0,0,1-1.9-.656A3.335,3.335,0,0,1,5.8,13.891a4.4,4.4,0,0,0,.609.062,3.054,3.054,0,0,0,.8-.125A3.282,3.282,0,0,1,5.282,12.7,3.12,3.12,0,0,1,4.5,10.61v-.031a3.875,3.875,0,0,0,1.562.406A3.1,3.1,0,0,1,4.641,8.25a3.25,3.25,0,0,1,.453-1.656,9.3,9.3,0,0,0,3,2.422,9.29,9.29,0,0,0,3.781,1.016,3.016,3.016,0,0,1-.078-.75A3.281,3.281,0,0,1,15.078,6a3.119,3.119,0,0,1,2.391,1.031,6.527,6.527,0,0,0,2.094-.8A3.191,3.191,0,0,1,18.11,8.062,6.956,6.956,0,0,0,20,7.531,6.381,6.381,0,0,1,18.359,9.234Z" fill="#fff"/>
    </g>
  </g>
</svg>
