<svg xmlns="http://www.w3.org/2000/svg" xmlns:xlink="http://www.w3.org/1999/xlink" width="24" height="24" viewBox="0 0 24 24">
  <defs>
    <clipPath id="clip-path">
      <rect id="Rectangle_35" data-name="Rectangle 35" width="24" height="24" transform="translate(1144 3439)" fill="#fff"/>
    </clipPath>
  </defs>
  <g id="Mask_Group_12" data-name="Mask Group 12" transform="translate(-1144 -3439)" clip-path="url(#clip-path)">
    <g id="facebook" transform="translate(1144 3439)">
      <g id="Group_89" data-name="Group 89">
        <path id="Path_153" data-name="Path 153" d="M21,0H3A3,3,0,0,0,0,3V21a3,3,0,0,0,3,3h9V15.75H9V12h3V9a4.5,4.5,0,0,1,4.5-4.5h3V8.25H18c-.828,0-1.5-.078-1.5.75v3h3.75l-1.5,3.75H16.5V24H21a3,3,0,0,0,3-3V3A3,3,0,0,0,21,0Z" fill="#fff"/>
      </g>
    </g>
  </g>
</svg>
