<svg xmlns="http://www.w3.org/2000/svg" xmlns:xlink="http://www.w3.org/1999/xlink" width="24" height="24" viewBox="0 0 24 24">
  <defs>
    <clipPath id="clip-path">
      <rect id="Rectangle_33" data-name="Rectangle 33" width="24" height="24" transform="translate(1232 4403)" fill="#fff"/>
    </clipPath>
  </defs>
  <g id="Mask_Group_10" data-name="Mask Group 10" transform="translate(-1232 -4403)" clip-path="url(#clip-path)">
    <g id="whatsapp" transform="translate(1232 4403)">
      <g id="Group_86" data-name="Group 86">
        <g id="Group_85" data-name="Group 85">
          <path id="Path_150" data-name="Path 150" d="M12.124,5.681A6.145,6.145,0,0,0,5.957,11.81a6.076,6.076,0,0,0,1.18,3.6l-.78,2.284,2.379-.761a6.2,6.2,0,0,0,9.592-5.12A6.19,6.19,0,0,0,12.124,5.681Zm3.616,8.66a1.877,1.877,0,0,1-1.218.856c-.324.038-.324.266-2.17-.438a7.418,7.418,0,0,1-3.083-2.7,3.4,3.4,0,0,1-.742-1.846,1.951,1.951,0,0,1,.628-1.485A.719.719,0,0,1,9.63,8.5c.114,0,.247.019.343.019.114,0,.247-.057.4.3s.514,1.237.552,1.332a.34.34,0,0,1,.019.3,2.455,2.455,0,0,1-.171.3c-.1.1-.19.228-.266.3-.1.1-.19.19-.076.362a6.1,6.1,0,0,0,1.009,1.237,5.257,5.257,0,0,0,1.446.895c.171.1.285.076.381-.038a5.709,5.709,0,0,0,.571-.7c.114-.171.247-.152.4-.1.171.057,1.047.495,1.237.59.171.1.3.133.343.209A1.306,1.306,0,0,1,15.74,14.341Z" fill="#fff"/>
        </g>
      </g>
      <g id="Group_88" data-name="Group 88">
        <g id="Group_87" data-name="Group 87">
          <path id="Path_151" data-name="Path 151" d="M17.967.01H6.014A6.027,6.027,0,0,0,0,6.024V18a6.023,6.023,0,0,0,6.014,6H17.986A6.027,6.027,0,0,0,24,17.976V6.024A6.056,6.056,0,0,0,17.967.01ZM12.124,19.1a7.28,7.28,0,0,1-3.559-.914L4.492,19.48l1.332-3.9a7.365,7.365,0,1,1,6.3,3.521Z" fill="#fff"/>
        </g>
      </g>
    </g>
  </g>
</svg>
