<svg xmlns="http://www.w3.org/2000/svg" xmlns:xlink="http://www.w3.org/1999/xlink" width="24" height="24" viewBox="0 0 24 24">
  <defs>
    <clipPath id="clip-path">
      <rect id="Rectangle_32" data-name="Rectangle 32" width="24" height="24" transform="translate(1276 4403)" fill="#fff"/>
    </clipPath>
  </defs>
  <g id="Mask_Group_9" data-name="Mask Group 9" transform="translate(-1276 -4403)" clip-path="url(#clip-path)">
    <g id="instagram" transform="translate(1276 4403)">
      <g id="Group_78" data-name="Group 78">
        <g id="Group_77" data-name="Group 77">
          <path id="Path_146" data-name="Path 146" d="M14.122,10.458a2.61,2.61,0,0,0-4.263,0A2.7,2.7,0,0,0,9.364,12a2.626,2.626,0,1,0,5.253,0A2.7,2.7,0,0,0,14.122,10.458Z" fill="#fff"/>
        </g>
      </g>
      <g id="Group_80" data-name="Group 80">
        <g id="Group_79" data-name="Group 79">
          <path id="Path_147" data-name="Path 147" d="M15.778,10.477a3.742,3.742,0,0,1,.3,1.523A4.092,4.092,0,1,1,7.9,12a3.676,3.676,0,0,1,.3-1.523H5.9v6.109a1.545,1.545,0,0,0,1.5,1.5h9.174a1.545,1.545,0,0,0,1.5-1.5V10.477Z" fill="#fff"/>
        </g>
      </g>
      <g id="Group_82" data-name="Group 82">
        <g id="Group_81" data-name="Group 81">
          <path id="Path_148" data-name="Path 148" d="M17.4,6.252H15.188V8.784H17.7V6.233Z" fill="#fff"/>
        </g>
      </g>
      <g id="Group_84" data-name="Group 84">
        <g id="Group_83" data-name="Group 83">
          <path id="Path_149" data-name="Path 149" d="M17.967.01H6.014A6.027,6.027,0,0,0,0,6.024V18a6.023,6.023,0,0,0,6.014,6H17.986A6.027,6.027,0,0,0,24,17.976V6.024A6.056,6.056,0,0,0,17.967.01Zm1.446,10.449h0v6.128a2.8,2.8,0,0,1-2.836,2.836H7.4a2.8,2.8,0,0,1-2.836-2.836V7.413A2.8,2.8,0,0,1,7.4,4.577h9.174a2.8,2.8,0,0,1,2.836,2.836v3.045Z" fill="#fff"/>
        </g>
      </g>
    </g>
  </g>
</svg>
